Coordinates
version=1
nRows=20
nColumns=34
inDegrees=yes

Units are S.I. units (second, meters, Newtons, ...)
If the header above contains a line with 'inDegrees', this indicates whether rotational values are in degrees (yes) or radians (no).

endheader
time	pelvis_tilt	pelvis_list	pelvis_rotation	pelvis_tx	pelvis_ty	pelvis_tz	hip_flexion_r	hip_adduction_r	hip_rotation_r	knee_angle_r	ankle_angle_r	subtalar_angle_r	mtp_angle_r	hip_flexion_l	hip_adduction_l	hip_rotation_l	knee_angle_l	ankle_angle_l	subtalar_angle_l	mtp_angle_l	lumbar_extension	lumbar_bending	lumbar_rotation	arm_flex_r	arm_add_r	arm_rot_r	elbow_flex_r	pro_sup_r	arm_flex_l	arm_add_l	arm_rot_l	elbow_flex_l	pro_sup_l
     14.11666670	      2.81828630	      3.02112373	      2.79357244	     -0.02435960	      0.97258066	     -0.16238539	     -8.09943413	     -5.95684655	      9.73441787	     43.17292648	    -38.48488467	    -14.85739474	      0.00000000	      3.58256398	      7.26920410	    -15.59885549	      0.00000000	     -0.50595825	     -1.53883566	      0.00000000	    -10.66873703	     -3.37485972	      3.43107646	      8.67287899	     -8.16358661	     10.45182265	     22.30037827	     60.82472103	      4.61898600	     -4.13480408	     -1.15192103	     13.98639757	     56.79723684
     14.13333330	      2.82333499	      1.84959087	      3.30791711	     -0.01100816	      0.97396062	     -0.16811361	     -7.28737699	     -3.73359516	     10.43712846	     40.79490763	    -29.06082298	    -20.69011515	      0.00000000	      2.82497171	      6.03464331	    -15.23326358	      0.00000000	     -0.82923899	     -0.72994708	      0.00000000	    -10.53078678	     -1.93499370	      2.68806800	      8.06273433	     -8.22224578	     10.30547675	     21.73621817	     60.85771012	      5.32141101	     -3.97238417	     -1.21899098	     14.25090660	     56.90339757
     14.15000000	      3.25486211	      1.34664682	      3.60071287	      0.00262339	      0.97457989	     -0.17241970	     -7.02510651	     -2.33444726	     11.07742514	     40.21923487	    -22.31509662	    -21.79042839	      0.00000000	      1.44116430	      5.46673756	    -15.49966628	      0.00000000	     -0.64885765	      1.27472543	      0.00000000	    -10.67122645	     -1.31516758	      1.77403341	      7.74910356	     -7.79894204	      9.55549108	     20.21176888	     60.93842505	      5.81667741	     -4.10088515	     -1.50813908	     14.47727739	     57.25228029
     14.16666670	      3.91638803	      1.49834587	      3.89502355	      0.01518485	      0.97479814	     -0.17602776	     -7.69277659	     -1.84219600	     10.94205224	     41.56857653	    -22.87907938	    -16.81512846	      0.00000000	     -0.30716389	      5.62392679	    -14.89703396	      0.00000000	     -0.73097334	      2.89342983	      0.00000000	    -11.03575775	     -1.51881021	      0.96470696	      7.20153253	     -7.41832431	      8.95567582	     19.37758822	     61.07632783	      6.50861824	     -4.39911023	     -1.83131987	     14.87165173	     57.57256118
     14.18333330	      3.71793131	      2.08606088	      3.56908768	      0.02840642	      0.97161485	     -0.17887034	     -8.45364599	     -2.23390335	     10.41496096	     42.33866867	    -26.72811651	     -8.32452717	      0.00000000	     -1.18337329	      6.39008612	    -14.43736803	      0.00000000	     -0.30835201	      3.99643467	      0.00000000	    -10.21378057	     -2.39490969	      0.69650381	      6.27334575	     -7.02211621	      8.47425350	     18.64912081	     61.18925469	      6.81768327	     -4.79909301	     -2.14709841	     15.37273628	     57.81077267
     14.20000000	      2.87227231	      2.64057438	      2.75533622	      0.04226728	      0.96624158	     -0.18122825	     -8.22014740	     -3.05866541	      9.68531310	     42.10240374	    -25.68976968	     -4.32108128	      0.00000000	     -1.23078111	      7.24031366	    -14.56915551	      0.00000000	      1.01919648	      4.80706901	      0.00000000	     -8.72464946	     -3.16016827	      0.87589503	      5.37972675	     -6.75914403	      7.95621161	     18.03929475	     61.29584070	      6.89440401	     -5.09791177	     -2.48072027	     16.07318212	     58.01497975
     14.21666670	      2.01404551	      3.18135322	      1.95775117	      0.05633144	      0.96102428	     -0.18283230	     -7.10612876	     -4.13187831	      8.51612704	     41.70707114	    -19.83425318	     -5.78365678	      0.00000000	     -1.15632571	      7.98879067	    -14.91016704	      0.00000000	      2.78598858	      5.75916115	      0.00000000	     -7.25214318	     -3.82121150	      1.05345614	      4.56446015	     -6.50967472	      7.38791037	     17.44288985	     61.40184438	      6.96714013	     -5.48177890	     -2.85038707	     16.99147703	     58.18964689
     14.23333330	      1.21154677	      3.50336950	      1.48979937	      0.06989749	      0.95849401	     -0.18413805	     -5.73258845	     -4.83193547	      7.05467454	     40.71006768	    -11.85668696	     -7.65468028	      0.00000000	     -1.14651066	      8.39140528	    -15.05332493	      0.00000000	      4.33684711	      6.62956417	      0.00000000	     -5.85544439	     -4.23983133	      0.98966724	      3.78416355	     -6.23325396	      6.81065280	     16.82027448	     61.49567987	      7.01247971	     -5.89263179	     -3.21437572	     17.88822591	     58.33098401
     14.25000000	      0.74060441	      3.83392853	      1.43001188	      0.08200831	      0.95874621	     -0.18565476	     -4.85222694	     -5.33848956	      5.33197116	     40.01542768	     -5.76906238	     -8.47669532	      0.00000000	     -1.50640771	      8.70089304	    -14.95091038	      0.00000000	      5.55523759	      7.55713488	      0.00000000	     -4.79738234	     -4.71954548	      0.74057780	      3.03928433	     -5.87009763	      6.22484542	     16.15025854	     61.57152255	      7.21322423	     -6.37097229	     -3.53865639	     18.72675555	     58.45456165
     14.26666670	      0.19686204	      4.44418254	      1.46052118	      0.09287862	      0.95837812	     -0.18724421	     -4.75055171	     -6.16528974	      3.82114578	     39.67244662	     -2.44816321	     -8.10566113	      0.00000000	     -1.75537220	      9.30986695	    -14.86577858	      0.00000000	      6.29963196	      8.11842876	      0.00000000	     -3.61641082	     -5.63250942	      0.72493011	      2.14966711	     -5.40465108	      5.70178125	     15.48838145	     61.62587758	      7.57790696	     -6.96636931	     -3.77813807	     19.45954060	     58.56273803
     14.28333330	     -0.97701269	      5.70708635	      1.12298035	      0.10352377	      0.95292924	     -0.18782090	     -5.68235328	     -7.81387395	      2.98457936	     38.22044835	      1.90273155	     -6.31594176	      0.00000000	     -1.19711540	     10.62971265	    -15.21787994	      0.00000000	      6.68273215	      8.00794206	      0.00000000	     -1.56234526	     -7.34281433	      1.49171708	      0.98688984	     -4.86972319	      5.15700649	     14.82055481	     61.65718148	      7.97135453	     -7.73694920	     -3.90976971	     20.16594256	     58.67978186
     14.30000000	     -3.06306099	      7.21160835	      0.48886430	      0.11423654	      0.94288776	     -0.18730396	     -5.88544819	     -9.38222617	      2.11788407	     35.43522480	     11.47338293	     -5.25881172	      0.00000000	      1.35575927	     11.77293799	    -16.86728338	      1.74511680	      8.44236219	      8.04365822	      0.00000000	      1.32766364	     -9.21551092	      2.80357403	     -0.29692918	     -4.22181409	      4.42788795	     14.49130299	     61.66667234	      8.23414501	     -8.54818159	     -3.84807512	     21.13683069	     58.84581823
     14.31666670	     -5.18030176	      8.65768606	      0.72018655	      0.12599824	      0.93386653	     -0.18753097	     -4.44268670	     -9.62993382	      3.02246367	     32.66599994	     25.02432108	     -5.40515305	      0.00000000	      4.95159776	     12.39943208	    -19.32094890	      5.39131582	     11.42914910	      9.49695344	      0.00000000	      3.52864906	    -10.99165563	      3.22065112	     -1.51984879	     -3.52073671	      3.50181641	     14.70108321	     61.63645139	      8.33032171	     -9.61876030	     -3.54496468	     22.48836036	     59.03614527
     14.33333330	     -8.40415730	     11.24357985	      2.11043191	      0.13727955	      0.92313609	     -0.18716060	     -6.19663581	    -10.84352449	      3.70880678	     28.09069159	     36.47254825	     -4.87574892	      0.00000000	     11.22027616	     12.45667304	    -26.62808848	     12.10588187	     17.50006889	     16.21642750	      0.00000000	      6.03353982	    -14.56847701	      3.75001117	     -3.76330225	     -2.17210569	      0.95761109	     16.48933435	     61.46719357	      8.55323179	    -11.46594277	     -1.91135291	     25.57289892	     59.47682339
     14.35000000	    -10.83082620	     11.23512762	      3.88131589	      0.15403534	      0.92676460	     -0.19051705	      1.10182018	    -10.15675631	      6.23599615	     31.55008915	     41.26921725	     -9.18179715	      0.00000000	     13.46189146	     12.14546662	    -26.73812711	     12.25659926	     22.85337406	     17.24215949	      0.00000000	      6.64861349	    -14.74591028	      1.07408709	     -5.14521056	     -1.52629808	     -1.32360310	     18.01320049	     61.76731278	      5.55458334	    -12.94190026	     -1.09829254	     30.71919273	     59.16879040
     14.36666670	     -7.27642620	      6.14185931	      5.03831204	      0.16368304	      0.94822114	     -0.19881685	     10.05786019	     -3.60356719	      5.48662742	     34.65672145	     36.62749418	    -10.81989515	      0.00000000	      8.17958118	      7.58504615	    -23.25232135	      9.00233935	     20.20821131	     18.13600513	      0.00000000	      0.89198447	     -8.24206905	     -6.01310718	     -1.16163979	     -3.00136718	      1.16143056	     15.18902816	     64.17400971	      3.05534263	    -11.40076282	     -6.90838729	     32.76734509	     56.45957622
     14.38333330	     -4.91853873	      2.12662380	      5.54587100	      0.17033653	      0.95989844	     -0.20276686	     18.58262788	      0.33772612	      2.44754320	     35.43755378	     27.01914698	    -11.63901664	      0.00000000	      4.02291399	      4.89032817	    -19.12267729	      5.28357842	     16.47841364	     17.02062330	      0.00000000	     -2.03617432	     -3.16791030	     -7.97810022	      0.42074496	     -3.88579660	      1.69880959	     14.51726434	     64.51333626	      3.80265580	    -10.61967283	     -7.42824967	     32.24477558	     56.13885891
     14.40000000	     -2.41929430	     -0.05241429	      5.11031724	      0.17838083	      0.96645365	     -0.20531011	     21.99945894	      1.78900551	     -1.53051984	     31.88525652	     17.94256509	     -9.61420068	      0.00000000	      0.09339405	      3.44115455	    -17.11480072	      3.15342388	     13.99391183	     15.63080951	      0.00000000	     -4.38819483	     -0.15774990	     -8.93183287	      2.22993117	     -4.37047393	      2.55859992	     13.01687931	     64.92321534	      4.09625615	    -10.28931502	     -8.35782883	     32.26110698	     55.71596065
     14.41666670	     -0.14471737	     -1.75357924	      5.08832574	      0.18845873	      0.96766624	     -0.20795952	     22.83709225	      2.48492992	     -4.78004203	     28.53003114	     11.93707241	     -7.62683100	      0.00000000	     -3.21342572	      1.88662661	    -15.11766223	      2.28236933	     12.51587459	     14.78890449	      0.00000000	     -6.14141211	      2.11853645	     -9.45571223	      3.43664840	     -4.67893585	      3.57125886	     11.54241451	     65.36261180	      4.52397206	    -10.07803213	     -9.14358352	     32.40717768	     55.27760045
     14.43333330	      0.76383664	     -2.84637057	      5.29521266	      0.20095911	      0.96582612	     -0.21103806	     22.90124848	      2.67575664	     -6.65561468	     26.17150040	      8.75298889	     -5.74525792	      0.00000000	     -4.88308504	      0.77557296	    -13.75819188	      2.51196500	     12.47989306	     14.73684687	      0.00000000	     -5.90077540	      3.45164571	     -9.61358601	      3.32733907	     -5.00226072	      3.84654488	     10.76101302	     65.47533664	      4.65287533	     -9.82391785	     -9.23108117	     32.48950138	     55.15115390
